<?xml version="1.0" encoding="utf-8"?>
<!-- Generator: Adobe Illustrator 16.0.0, SVG Export Plug-In . SVG Version: 6.00 Build 0)  -->
<!DOCTYPE svg PUBLIC "-//W3C//DTD SVG 1.1//EN" "http://www.w3.org/Graphics/SVG/1.1/DTD/svg11.dtd">
<svg version="1.1"
	 id="svg28243" xmlns:dc="http://purl.org/dc/elements/1.1/" xmlns:cc="http://creativecommons.org/ns#" xmlns:rdf="http://www.w3.org/1999/02/22-rdf-syntax-ns#" xmlns:svg="http://www.w3.org/2000/svg" xmlns:sodipodi="http://sodipodi.sourceforge.net/DTD/sodipodi-0.dtd" xmlns:inkscape="http://www.inkscape.org/namespaces/inkscape" sodipodi:docname="Biochip v22 by Merlin2525.svg" inkscape:version="0.48.4 r9939"
	 xmlns="http://www.w3.org/2000/svg" xmlns:xlink="http://www.w3.org/1999/xlink" x="0px" y="0px" width="210.407px"
	 height="221.067px" viewBox="62.073 24.371 210.407 221.067" enable-background="new 62.073 24.371 210.407 221.067"
	 xml:space="preserve">
<title  id="title21774">Biochip v1 by Merlin2525.svg</title>
<sodipodi:namedview  showborder="false" fit-margin-top="10" fit-margin-left="10" showguides="true" showgrid="false" inkscape:cy="281.54165" inkscape:cx="31.425492" inkscape:zoom="1.0803455" borderopacity="1.0" bordercolor="#666666" pagecolor="#ffffff" id="base" inkscape:snap-global="false" inkscape:guide-bbox="true" inkscape:showpageshadow="false" fit-margin-bottom="10" fit-margin-right="10" inkscape:window-maximized="1" inkscape:window-y="24" inkscape:window-x="57" inkscape:window-height="744" inkscape:window-width="1309" inkscape:current-layer="layer4" inkscape:document-units="px" inkscape:pageshadow="2" inkscape:pageopacity="0.0">
	
		<inkscape:grid  type="xygrid" originy="-58.563013px" originx="-23.736668px" enabled="true" visible="true" empspacing="5" id="grid21768" snapvisiblegridlinesonly="true">
		</inkscape:grid>
</sodipodi:namedview>
<g id="layer4" transform="translate(-165.82053,-179.62658)" inkscape:label="Circuit" inkscape:groupmode="layer">
	<path id="path26851" inkscape:connector-curvature="0" fill="#FFFFFF" d="M432.029,206.427l-30.71,0.548l-4.224-2.854l-4.484-0.003
		l6.871,4.885l33.291-0.255l5.164,3.269c-1.041-2.218-3.225-4.22-5.912-5.59L432.029,206.427z"/>
	<path id="path26853" inkscape:connector-curvature="0" fill="#FFFFFF" d="M355.874,204.092l-25.758-0.017l0.191,2.461
		l31.952,21.065l17.996-0.198l6.777,4.793l1.063,51.566l-12.952,9.27l0.176,17.914l17.993-0.198l0.693,26.472l-15.947-0.017
		l-2.043,2.9l0.34,38.511l26.613-0.117l-0.269-22.846l3.891-4.927l-1.188-90.947l9.714-6.952l0.056-24.151l-5.279-0.151l-6.348-3.85
		l-0.086-4.931l-5.702-3.777l-4.096,0.431c-1.975-1.788-5.306-2.857-8.613-2.765l-14.653,0.13
		C365.379,210.385,360.234,206.984,355.874,204.092L355.874,204.092z"/>
	<path id="path26855" inkscape:connector-curvature="0" fill="#FFFFFF" d="M319.461,204.068l-10.622-0.008l1.223,1.077l7.903,0.057
		l3.873,2.718c-0.488,0.487-0.837,1.015-0.983,1.601c-0.488,1.952,1.467,3.801,4.367,4.129c2.901,0.329,5.648-0.987,6.136-2.939
		s-1.468-3.801-4.368-4.13c-1.282-0.145-2.536,0.032-3.547,0.428L319.461,204.068z"/>
	<path id="path26857" inkscape:connector-curvature="0" fill="#FFFFFF" d="M321.982,218.564l-21.62-14.526l3.986,0.005
		l18.819,12.419l6.647-0.102c0.126-0.43,0.398-0.83,0.778-1.199c1.679-1.626,4.997-2.028,7.412-0.899s3.014,3.363,1.336,4.988
		c-1.679,1.626-4.997,2.028-7.412,0.899c-1.009-0.472-1.703-1.138-2.025-1.838C327.275,218.343,321.982,218.564,321.982,218.564
		L321.982,218.564z"/>
	<path id="path26859" inkscape:connector-curvature="0" fill="#FFFFFF" d="M298.19,218.099c-10.406,0.038-31.242,0.04-31.242,0.04
		l-2.259-1.597l0.022-5.365l-1.726-1.09l-5.913,0.058l-1.621,0.878l-0.022,5.365l-2.38,1.52l-7.317,0.066l-2.26-1.597l-0.085-4.93
		l-1.836-0.654l-11.313,0.06c0.365-0.606,1.199-1.051,1.718-1.595l9.953,0.065l3.615,1.472l0.113,4.821l1.065,1.015l5.362-0.176
		l1.5-0.725l0.022-5.365l2.797-1.529l7.586,0.02l2.792,2.104l0.086,4.931l1.176,0.972l30.708-0.213l5.083,2.863
		c0.99-0.406,2.148-0.544,3.331-0.41c2.9,0.329,4.855,2.178,4.368,4.129h0.001c-0.488,1.952-3.235,3.269-6.135,2.94
		c-2.901-0.328-4.856-2.177-4.368-4.129c0.167-0.666,0.595-1.257,1.236-1.712L298.19,218.099z"/>
	<path id="path26861" inkscape:connector-curvature="0" fill="#FFFFFF" d="M228.186,224.552l0.002-1.241l54.768-0.609
		c-0.171-0.696,0.091-1.402,0.698-2.026c1.598-1.662,4.895-2.138,7.363-1.063c2.47,1.076,3.177,3.294,1.579,4.957
		c-1.598,1.662-4.895,2.138-7.363,1.063c-0.961-0.419-1.657-1.011-2.041-1.628L228.186,224.552z"/>
	<path id="path26863" inkscape:connector-curvature="0" fill="#FFFFFF" d="M329.454,244.457l-101.298,0.555l0.001-1.313
		l100.336-0.692l8.75-6.477c-0.385-0.575-0.516-1.248-0.343-1.935c0.487-1.952,3.234-3.268,6.135-2.94
		c2.9,0.329,4.856,2.177,4.368,4.129s-3.236,3.269-6.136,2.94c-1.134-0.128-2.121-0.488-2.852-0.98L329.454,244.457z"/>
	<path id="path26865" inkscape:connector-curvature="0" fill="#FFFFFF" d="M289.524,231.433c-2.285,0.019-4.499,1.185-5.284,2.533
		l-56.068,0.484l-0.004,2.003l56.169-0.24c0.511,1.701,2.606,2.857,5.275,2.834c3.011-0.025,5.65-1.811,5.61-3.838
		c-0.025-2.026-2.69-3.803-5.702-3.777L289.524,231.433z"/>
	<path id="path26867" inkscape:connector-curvature="0" fill="#FFFFFF" d="M438.238,255.206l-15.044-0.133l-11.327,8.11
		c0,0,1.108,62.763,1.721,94.137l-2.814,3.26l-0.109,0.435c0.343,8.816,0.692,26.47,0.692,26.47l17.74,11.404l8.924-0.172
		l0.003-1.849l-7.741-0.082l-16.031-10.315l-0.372-25.094l2.814-3.26l0.108-0.434l-1.828-93.703l9.417-6.762l13.845-0.021
		L438.238,255.206z"/>
	<path id="path26869" inkscape:connector-curvature="0" fill="#FFFFFF" d="M438.259,261.252l-11.243,0.124l-4.519,3.697
		c0,0,0.89,61.752,1.429,93.417l-3.347,2.752l-0.75,0.362l-0.108,0.435c0.196,7.608,0.27,22.844,0.27,22.844l12.581,8.135
		l5.457,0.242l0.003-2.268l-4.27-0.076l-10.22-6.973l-0.598-21.541l3.994-2.679l0.109-0.435l0.108-0.434l-2.255-92.934l3.272-2.516
		l10.051-0.279L438.259,261.252z"/>
	<path id="path26871" inkscape:connector-curvature="0" fill="#FFFFFF" d="M298.426,251.674l-70.281,0.47l0.019,1.414l69.285-0.651
		l5.938,3.529c-1.579,1.646-0.965,3.879,1.46,5c2.423,1.121,5.741,0.708,7.405-0.923c1.666-1.631,1.051-3.864-1.372-4.984
		c-1.878-0.87-4.293-0.817-6.083,0.002L298.426,251.674z"/>
	<path id="path26873" inkscape:connector-curvature="0" fill="#FFFFFF" d="M438.218,267.893l-6.333,0.24l1.72,94.139l4.518,3.195
		C438.123,365.467,438.449,300.24,438.218,267.893L438.218,267.893z"/>
	<path id="path26875" inkscape:connector-curvature="0" fill="#FFFFFF" d="M300.542,264.439l-24.672,0.339l-1.727-1.09
		l-45.897,0.169l-0.121,1.431l45.046-0.37l1.726,1.09l24.671-0.337l4.042,2.687c-1.622,1.622-1.028,3.857,1.377,4.99
		c2.411,1.133,5.732,0.735,7.416-0.886c1.684-1.623,1.092-3.857-1.316-4.991c-1.913-0.9-4.4-0.835-6.174,0.038L300.542,264.439z"/>
	<path id="path26877" inkscape:connector-curvature="0" fill="#FFFFFF" d="M367.83,378.08l-1.046-59.616l4.169-3.386l-0.736-18.85
		l-11.846-7.539l-130.282,0.676l-0.005,2.649l127.834-0.544l10.987,7.065l0.272,14.389l-5.131,3.217l1.137,63.555l12.046,8.042
		c-0.183,0.395-0.294,0.835-0.28,1.293c0.077,1.979,2.524,3.541,5.464,3.488c2.941-0.052,5.261-1.699,5.184-3.678
		s-2.524-3.54-5.465-3.488c-0.569,0.007-1.114,0.08-1.658,0.168L367.83,378.08z"/>
	<path id="path26879" inkscape:connector-curvature="0" fill="#FFFFFF" d="M228.097,283.932l0.001-1.367l39.439-0.403
		c0.5-1.961,3.246-3.277,6.146-2.948c2.9,0.328,4.856,2.177,4.368,4.129c-0.488,1.952-3.235,3.269-6.135,2.94
		c-2.146-0.243-3.776-1.319-4.344-2.685L228.097,283.932z"/>
	<path id="path26881" inkscape:connector-curvature="0" fill="#FFFFFF" d="M351.026,297.016l-122.953,1.786l-0.006,3.426
		l120.16-2.039l2.75,1.725l0.313,6.746c-2.844,0.024-5.538,1.489-5.502,3.403c0.032,1.914,2.211,3.729,5.055,3.704
		c2.821-0.024,5.503-1.509,5.504-3.403c0.096-0.3,0.14-0.561,0.218-0.869l-0.514-11.242L351.026,297.016z"/>
	<path id="path26883" inkscape:connector-curvature="0" fill="#FFFFFF" d="M335.692,310.862l0.583,9.963l-5.607,3.838l-3.98-0.004
		l-28.086,17.866l-70.596,1.076l0.001-1.366l69.735-0.807l27.987-18.218l3.986,0.005l4.424-3.078l-0.516-9.9l4.28-2.488
		c-0.579-0.703-0.829-1.532-0.616-2.381c0.488-1.952,3.235-3.269,6.135-2.94c2.9,0.329,4.856,2.177,4.368,4.129
		s-3.235,3.269-6.136,2.94c-0.938-0.106-1.778-0.372-2.449-0.779L335.692,310.862z"/>
	<path id="path26885" inkscape:connector-curvature="0" fill="#FFFFFF" d="M284.29,308.228l-8.32,5.413l-47.919,0.248l-0.003,1.45
		l48.976-0.353l8.337-5.742l2.126-0.19c0.765,0.409,1.614,0.68,2.567,0.788c2.899,0.328,5.646-0.988,6.134-2.94h0.001
		c0.489-1.952-1.467-3.801-4.367-4.129c-2.901-0.329-5.647,0.987-6.136,2.939c-0.212,0.852,0.039,1.684,0.634,2.339L284.29,308.228z
		"/>
	<path id="path26887" inkscape:connector-curvature="0" fill="#FFFFFF" d="M323.339,322.046l-27.04,17.542l-68.29,0.824l0.049-1.421
		l67.413-0.459l26.048-17.139l0.034-2.489c-0.221-0.328-0.292-0.899-0.147-1.478c0.488-1.952,3.235-3.268,6.136-2.94
		c2.9,0.329,4.855,2.177,4.367,4.129s-3.235,3.269-6.134,2.94c-0.89-0.101-1.69-0.345-2.346-0.654
		c-0.096,0.472-0.094,1.143-0.094,1.143L323.339,322.046z"/>
	<path id="path26889" inkscape:connector-curvature="0" fill="#FFFFFF" d="M227.978,331.374l0.045-1.26l58.33-0.633
		c0.57-0.79,1.481-1.467,2.727-1.861c2.661-0.843,5.834-0.074,7.086,1.717c1.251,1.791,0.112,3.926-2.549,4.77h-0.002
		c-2.662,0.842-5.834,0.073-7.087-1.718c-0.378-0.542-0.539-1.117-0.542-1.641L227.978,331.374z"/>
	<path id="path26891" inkscape:connector-curvature="0" fill="#FFFFFF" d="M318.136,342.929l-15.972,10.716l-0.229,3.553
		l-4.857,3.476l-62.6,0.514l-5.611,3.838l0.147,28.647l-0.967,1.231l-0.142-31.331l5.61-3.837l62.598-0.515l3.994-2.679l0.229-3.552
		l16.837-11.513l4.312-0.139c0.281-0.868,1.127-1.691,2.417-2.206c2.531-1.008,5.798-0.445,7.296,1.259
		c1.499,1.703,0.662,3.902-1.87,4.91c-2.531,1.009-5.797,0.444-7.296-1.258c-0.343-0.391-0.562-0.805-0.606-1.233L318.136,342.929z"
		/>
	<path id="path26893" inkscape:connector-curvature="0" fill="#FFFFFF" d="M329.755,353.244l-11.548,8.034l-0.349,6.67l-4.749,3.041
		l-35.989,0.397l-49.211,33.545l-0.004,2.573l50.182-34.667l35.985-0.398l5.606-3.838l0.35-6.67l10.468-7.313l8.834,0.21
		c0.17,0.724,0.643,1.372,1.407,1.9c2.05,1.419,5.422,1.452,7.53,0.071c2.108-1.38,2.157-3.649,0.106-5.068
		c-2.051-1.419-5.422-1.452-7.53-0.072c-0.743,0.484-1.237,1.078-1.428,1.721L329.755,353.244z"/>
	<path id="path26895" inkscape:connector-curvature="0" fill="#FFFFFF" d="M315.243,375.704l-7.322,0.064l-14.607,9.121
		l-22.507,0.639l-42.915,29.264l0.004-2.066l41.899-28.677l22.514-0.368l14.541-8.928l7.322-0.065l9.439-6.297
		c-0.654-0.707-0.974-1.609-0.742-2.534c0.489-1.952,3.236-3.269,6.135-2.939c2.9,0.329,4.856,2.177,4.369,4.129
		c-0.489,1.952-3.236,3.268-6.136,2.939c-0.927-0.105-1.754-0.365-2.415-0.766L315.243,375.704z"/>
	<path id="path26897" inkscape:connector-curvature="0" fill="#FFFFFF" d="M438.053,374.657l-6.207-0.06l0.194,4.496l6.005,0.361
		L438.053,374.657z"/>
	<path id="path26899" inkscape:connector-curvature="0" fill="#FFFFFF" d="M336.646,396.469l-14.648,0.131l-1.609,1.159
		l-0.458,7.105l-5.302,3.593l-7.632,0.31l-3.888,2.877l-0.258,13.274l-1.782-0.001l0.141-13.846l4.938-3.574l8.01-0.491l3.939-2.797
		l0.437-7.106l2.489-1.955l14.654-0.129l5.623-3.804c-0.426-0.6-0.594-1.326-0.407-2.067c0.487-1.952,3.234-3.269,6.135-2.94
		c2.9,0.329,4.855,2.178,4.368,4.13l0,0c-0.488,1.953-3.235,3.27-6.136,2.939c-1.11-0.125-2.081-0.472-2.875-0.968L336.646,396.469z
		"/>
	<path id="path26901" inkscape:connector-curvature="0" fill="#FFFFFF" d="M354.529,395.151l-26.733,17.285l-1.28,6.281
		l-7.272,4.856l-0.326,1.304l2.011,0.053l0.155-0.701l7.291-4.949l1.369-6.068l25.947-16.797l55.129-1.388l14.304,9.225l11.18-0.205
		l1.728,1.091l0.004-2.23l-11.927,0.114l-14.308-9.226C392.703,394.105,354.528,395.151,354.529,395.151L354.529,395.151z"/>
	<path id="path26903" inkscape:connector-curvature="0" fill="#FFFFFF" d="M322.138,390.8l-8.846,6.154l-34.626,0.077
		l-24.957,16.872l0.215,10.981l-2.114-0.001l-0.429-11.851l26.449-17.225l34.514-0.079l9.465-6.308l1.42,0.151
		c0.017-0.576,0.296-1.197,0.855-1.751c1.634-1.646,4.941-2.088,7.386-0.988c2.445,1.1,3.103,3.326,1.469,4.972l0,0
		c-1.635,1.646-4.942,2.089-7.387,0.988c-1.044-0.47-1.764-1.145-2.125-1.871L322.138,390.8z"/>
	<path id="path26905" inkscape:connector-curvature="0" fill="#FFFFFF" d="M356.799,397.649l-25.191,16.321l-0.912,6.011
		l-6.401,4.953l2.585-0.045l5.772-4.317l0.797-5.862l24.456-15.844l52.015-0.358l13.018,9.08l11.949,0.012l3.111,1.987l0.003-1.768
		l-2.777-1.524l-11.295-0.175l-13.035-8.844C392.865,397.488,356.798,397.649,356.799,397.649L356.799,397.649z"/>
	<path id="path26907" inkscape:connector-curvature="0" fill="#FFFFFF" d="M400.333,399.658l-41.303,0.445l-22.678,15.773
		l-0.819,5.564l-4.02,3.522l2.465-0.023l3.41-2.938l0.621-5.459l22.209-15.134l39.028-0.086l8.028,4.894
		c-0.347,0.411-0.516,0.916-0.511,1.449c0.041,1.979,2.457,3.563,5.397,3.535c2.94-0.027,5.293-1.653,5.252-3.633
		s-2.458-3.563-5.397-3.536c-1.391,0.014-2.647,0.384-3.537,0.963c-2.749-1.7-8.156-5.339-8.156-5.339L400.333,399.658z"/>
	<path id="path26909" inkscape:connector-curvature="0" fill="#FFFFFF" d="M342.04,424.945l2.356,0.002l0.681-0.68l0.816-4.558
		l7.515-4.701l18.815-0.304l3.928,1.898l22.622-0.122l11.633,7.301l-0.617,1.208l1.973,0.002l0.571-1.605l-12.582-8.136
		c0,0-15.092,0.056-22.622,0.122l-4.198-1.816c-6.884,0.2-20.68,0.342-20.68,0.342l-7.954,5.171l-0.83,4.769L342.04,424.945z"/>
	<path id="path26911" inkscape:connector-curvature="0" fill="#FFFFFF" d="M342.304,418.268l21.287-13.148l31.47-0.241l23.991,15.69
		l0.194,4.496l1.81-0.066l-0.484-5.15l-24.527-16.199l-33.745,0.051l-21.643,13.906l-0.88,5.117l-3.082,2.219l2.8,0.033l2.033-1.724
		L342.304,418.268z"/>
	<path id="path26913" inkscape:connector-curvature="0" fill="#FFFFFF" d="M436.914,418.117c-1.977-0.001-5.92-0.225-5.92-0.225
		l-3.237,2.317c0,0,0.265,3.537,0.304,4.06c0.848-0.24,1.487-0.759,2.27-1.084l-0.514-2.239l2.134-1.604l3.986,0.006
		C436.308,418.932,436.629,418.478,436.914,418.117L436.914,418.117z"/>
	<path id="path26915" inkscape:connector-curvature="0" fill="#FFFFFF" d="M355.314,416.871l-6.338,4.077l-0.779,4.003h1.916
		l0.407-3.382l5.925-3.595l16.048,0.003l2.795,2.105l10.662-0.134l2.579,2.977l-0.011,2.052l2.161-0.02l0.012-2.683l-3.113-3.484
		l-11.302,0.063l-2.797-2.106L355.314,416.871z"/>
	<path id="path26917" inkscape:connector-curvature="0" fill="#FFFFFF" d="M308.571,424.921l-1.972,0.001l-0.311-7.12
		c-0.598-0.342-1.108-0.828-1.422-1.399c-1.027-1.854,0.374-3.918,3.131-4.61c2.756-0.69,5.823,0.252,6.85,2.107h-0.002
		c1.027,1.855-0.374,3.92-3.131,4.61c-1.166,0.293-2.387,0.292-3.486,0.047L308.571,424.921z"/>
	<path id="path26919" inkscape:connector-curvature="0" fill="#FFFFFF" d="M370.51,419.544l-12.236,0.219l-4.204,3.232l-0.059,1.96
		l1.944,0.001l-0.181-1.267l3.618-2.833l10.396-0.053l5.594,4.212c0.717-0.218,2.664-0.046,2.664-0.046L370.51,419.544
		L370.51,419.544z"/>
	<path id="path26921" inkscape:connector-curvature="0" fill="#FFFFFF" d="M274.262,412.443l-7.928,6.176l0.569,6.272h-1.836
		l-0.655-6.992l9.339-7.08c0,0,13.204,2.8,14.195,2.745c0.725-0.681,1.894-1.18,3.275-1.334c2.902-0.322,5.643,0.999,6.123,2.951
		c0.48,1.953-1.483,3.798-4.384,4.121c-2.901,0.323-5.644-0.998-6.124-2.951c-0.116-0.473-0.088-0.939,0.039-1.398L274.262,412.443z
		"/>
	<path id="path26923" inkscape:connector-curvature="0" fill="#FFFFFF" d="M387.661,329.875c-0.488,1.952-3.235,3.268-6.135,2.939
		c-2.901-0.328-4.856-2.177-4.368-4.129c0.487-1.953,3.234-3.269,6.135-2.94C386.193,326.073,388.148,327.922,387.661,329.875z"/>
	<path id="path26925" inkscape:connector-curvature="0" fill="#FFFFFF" d="M281.739,210.451c-0.488,1.952,1.468,3.801,4.368,4.129
		c2.9,0.329,5.647-0.987,6.135-2.939v0c0.489-1.952-1.468-3.801-4.368-4.129c-1.264-0.143-2.499,0.026-3.552,0.408l-5.733-3.879
		c0,0-23.409-0.075-34.271-0.023c-3.283,0.081-6.066,1.23-8.586,2.411l41.917-0.173l4.822,2.926
		C282.117,209.541,281.858,209.977,281.739,210.451L281.739,210.451z"/>
	<path id="path26927" inkscape:connector-curvature="0" fill="#FFFFFF" d="M301.643,236.865c1.685,1.623,5.006,2.017,7.416,0.883
		c2.41-1.134,2.997-3.369,1.312-4.992c-1.685-1.622-5.005-2.017-7.481-0.962l-5.932-3.541l-68.778,0.347l-0.002,1.277l67.88-0.327
		l5.453,3.219C300.394,233.999,300.342,235.614,301.643,236.865L301.643,236.865z"/>
	<path id="path26929" inkscape:connector-curvature="0" fill="#FFFFFF" d="M323.897,238.545c2.901,0.329,5.648-0.988,6.136-2.94
		l-0.002,0.001c0.488-1.952-1.467-3.801-4.367-4.129c-2.901-0.329-5.648,0.988-6.136,2.94c-0.207,0.827,0.025,1.634,0.585,2.269
		l-4.757,3.048l-87.197,0.733l-0.002,1.558l88.17-0.896l5.016-3.389C322.056,238.153,322.924,238.435,323.897,238.545
		L323.897,238.545z"/>
	<path id="path26931" inkscape:connector-curvature="0" fill="#FFFFFF" d="M364.07,235.378c-0.489,1.952-3.235,3.268-6.136,2.939
		c-2.899-0.329-4.856-2.177-4.367-4.129c0.488-1.952,3.234-3.268,6.135-2.94C362.602,231.577,364.558,233.426,364.07,235.378z"/>
	<path id="path26933" inkscape:connector-curvature="0" fill="#FFFFFF" d="M365.443,247.165c-0.488,1.952-3.235,3.268-6.135,2.94
		c-2.901-0.329-4.856-2.178-4.369-4.13c0.489-1.952,3.235-3.268,6.136-2.939C363.975,243.363,365.931,245.213,365.443,247.165z"/>
	<path id="path26935" inkscape:connector-curvature="0" fill="#FFFFFF" d="M366.87,258.734c-0.487,1.952-3.234,3.268-6.135,2.94
		c-2.9-0.329-4.856-2.178-4.368-4.13c0.489-1.952,3.235-3.268,6.136-2.939C365.402,254.932,367.359,256.781,366.87,258.734z"/>
	<path id="path26937" inkscape:connector-curvature="0" fill="#FFFFFF" d="M367.597,270.447c-0.488,1.952-3.235,3.268-6.135,2.94
		c-2.901-0.329-4.856-2.178-4.369-4.13c0.488-1.952,3.235-3.268,6.136-2.939S368.084,268.495,367.597,270.447z"/>
	<path id="path26939" inkscape:connector-curvature="0" fill="#FFFFFF" d="M384.219,281.053c-0.488,1.952-3.235,3.269-6.135,2.939
		c-2.9-0.328-4.856-2.177-4.368-4.129s3.235-3.268,6.135-2.939C382.752,277.252,384.707,279.101,384.219,281.053z"/>
	<path id="path26941" inkscape:connector-curvature="0" fill="#FFFFFF" d="M383.976,270.065c-0.488,1.952-3.235,3.269-6.136,2.94
		s-4.855-2.177-4.367-4.129c0.487-1.952,3.234-3.268,6.135-2.94C382.508,266.264,384.463,268.113,383.976,270.065z"/>
	<path id="path26943" inkscape:connector-curvature="0" fill="#FFFFFF" d="M383.895,258.425c-0.487,1.952-3.234,3.268-6.136,2.94
		c-2.899-0.329-4.854-2.177-4.367-4.129c0.488-1.952,3.235-3.269,6.135-2.94C382.428,254.624,384.383,256.473,383.895,258.425
		L383.895,258.425z"/>
	<path id="path26945" inkscape:connector-curvature="0" fill="#FFFFFF" d="M383.06,247.147c-0.488,1.952-3.235,3.269-6.136,2.94
		s-4.855-2.178-4.367-4.13c0.487-1.952,3.234-3.268,6.136-2.939C381.592,243.346,383.547,245.194,383.06,247.147z"/>
	<path id="path26947" inkscape:connector-curvature="0" fill="#FFFFFF" d="M380.717,235.25c-0.487,1.952-3.235,3.269-6.136,2.939
		c-2.899-0.328-4.855-2.177-4.367-4.129s3.234-3.268,6.135-2.939S381.206,233.298,380.717,235.25z"/>
	<path id="path26949" inkscape:connector-curvature="0" fill="#FFFFFF" d="M378.797,205.363c2.9,0.329,4.856,2.177,4.368,4.129
		c-0.488,1.952-3.235,3.268-6.136,2.939c-2.899-0.328-4.855-2.177-4.367-4.129c0.175-0.7,0.64-1.317,1.293-1.832l-3.364-2.368
		l2.927,0.002c0.565,0.358,1.563,1.165,2.136,1.538C376.6,205.353,377.688,205.237,378.797,205.363L378.797,205.363z"/>
	<path id="path26951" inkscape:connector-curvature="0" fill="#FFFFFF" d="M418.866,222.168c-0.488,1.952-3.235,3.268-6.135,2.939
		c-2.9-0.329-4.856-2.177-4.368-4.129c0.487-1.952,3.234-3.268,6.136-2.94C417.398,218.367,419.353,220.216,418.866,222.168z"/>
	<path id="path26953" inkscape:connector-curvature="0" fill="#FFFFFF" d="M288.185,262.652c2.814,0.575,5.789-0.492,6.645-2.387
		c0.856-1.894-0.734-3.896-3.547-4.472c-2.814-0.575-5.789,0.492-6.547,2.39l-56.599,0.306l-0.003,1.467l56.33-0.447
		C284.609,260.947,286.04,262.215,288.185,262.652L288.185,262.652z"/>
	<path id="path26955" inkscape:connector-curvature="0" fill="#FFFFFF" d="M330.231,259.851c-0.892,1.886-3.889,2.928-6.691,2.326
		c-2.803-0.601-4.35-2.618-3.457-4.504c0.655-1.385,2.443-2.314,4.49-2.444l0.136-2.364l-8.608-5.449l-87.926,0.777l-0.023-1.677
		c28.898-0.275,88.924-0.33,88.924-0.33l9.791,6.029l-0.107,3.125c2.815,0.608,4.362,2.625,3.469,4.511L330.231,259.851z"/>
	<path id="path26957" inkscape:connector-curvature="0" fill="#FFFFFF" d="M321.504,273.182c2.251,1.272,5.611,1.078,7.502-0.438
		c1.892-1.516,1.6-3.777-0.651-5.05c-1.777-1.005-4.245-1.094-6.184-0.407l-4.917-3.19l-0.193-9.862l-7.422-4.867l-81.492,0.647
		l-0.086,1.296l80.707-0.812l6.628,4.385l0.341,9.936l5.141,3.292C318.96,269.648,319.252,271.909,321.504,273.182L321.504,273.182z
		"/>
	<path id="path26959" inkscape:connector-curvature="0" fill="#FFFFFF" d="M348.065,282.774c-0.487,1.952-3.234,3.268-6.135,2.939
		s-4.856-2.177-4.368-4.129s3.234-3.268,6.136-2.94C346.597,278.973,348.553,280.821,348.065,282.774z"/>
	<path id="path26961" inkscape:connector-curvature="0" fill="#FFFFFF" d="M319.164,281.401c-0.488,1.952,1.468,3.801,4.368,4.129
		s5.647-0.988,6.136-2.94c0.488-1.952-1.469-3.8-4.369-4.129c-1.013-0.115-2.007-0.028-2.948,0.256l-4.06-2.874l-13.249-0.159
		l-11.403-7.555l-65.52,0.585l-0.003,1.432l64.363-0.694l11.588,7.464c0,0,8.839,0.106,13.248,0.159l3.438,2.317
		C319.96,279.888,319.366,280.589,319.164,281.401L319.164,281.401z"/>
	<path id="path26963" inkscape:connector-curvature="0" fill="#FFFFFF" d="M305.189,286.072c2.757,0.689,5.822-0.258,6.844-2.115
		l-0.001,0c1.022-1.856-0.385-3.919-3.142-4.607c-2.106-0.525-4.392-0.096-5.854,0.908l-12.963-8.506l-61.959,0.588l-0.003,1.44
		l60.984-0.796l12.876,8.377C301.024,283.322,302.431,285.385,305.189,286.072L305.189,286.072z"/>
	<path id="path26965" inkscape:connector-curvature="0" fill="#FFFFFF" d="M284.804,281.927c-0.488,1.952,1.467,3.801,4.368,4.129
		c2.9,0.329,5.646-0.988,6.135-2.94c0.488-1.952-1.468-3.801-4.368-4.129c-1.245-0.141-2.464,0.022-3.419,0.389l-5.756-3.641
		l-12.762,0.229l-2.467,1.332l-38.428,0.148l-0.003,1.704l39.653-0.53l2.198-1.171l10.989-0.175l4.957,3.027
		C285.331,280.766,284.956,281.316,284.804,281.927L284.804,281.927z"/>
	<path id="path26967" inkscape:connector-curvature="0" fill="#FFFFFF" d="M435.575,222.164c-0.488,1.952-3.235,3.268-6.136,2.94
		c-2.899-0.329-4.856-2.178-4.367-4.13c0.488-1.952,3.235-3.268,6.135-2.939C434.106,218.362,436.063,220.212,435.575,222.164z"/>
	<path id="path26969" inkscape:connector-curvature="0" fill="#FFFFFF" d="M435.808,234.113c-0.488,1.952-3.236,3.268-6.136,2.94
		c-2.899-0.329-4.855-2.178-4.367-4.129c0.487-1.952,3.234-3.269,6.135-2.94S436.296,232.161,435.808,234.113z"/>
	<path id="path26971" inkscape:connector-curvature="0" fill="#FFFFFF" d="M436.298,247.446c-0.487,1.952-3.235,3.269-6.135,2.94
		c-2.9-0.328-4.855-2.177-4.368-4.129c0.488-1.952,3.235-3.268,6.135-2.939C434.832,243.645,436.787,245.494,436.298,247.446z"/>
	<path id="path26973" inkscape:connector-curvature="0" fill="#FFFFFF" d="M346.936,230.138c2.9,0.329,5.647-0.988,6.135-2.94
		c0.488-1.952-1.467-3.801-4.367-4.129c-2.9-0.328-5.647,0.988-6.066,2.963l-15.824-0.212l-33.306-21.77l-4.135-0.003l36.251,23.875
		l17.25,0.058C343.539,229.053,345.033,229.922,346.936,230.138L346.936,230.138z"/>
	<path id="path26975" inkscape:connector-curvature="0" fill="#FFFFFF" d="M386.485,317.872c-0.488,1.952-3.235,3.268-6.135,2.939
		c-2.901-0.328-4.856-2.177-4.368-4.129c0.487-1.952,3.234-3.268,6.136-2.939C385.017,314.071,386.972,315.92,386.485,317.872z"/>
	<path id="path26977" inkscape:connector-curvature="0" fill="#FFFFFF" d="M320.039,305.541c0.488-1.952,3.235-3.269,6.136-2.94
		c2.9,0.329,4.855,2.178,4.367,4.13l0.002-0.005c-0.488,1.952-3.235,3.269-6.135,2.94c-0.462-0.052-0.903-0.146-1.288-0.217
		l-3.963,2.728l-0.122,8.485l-24.876,16.193l-66.146,0.346l0.003-1.259l65.323-0.133l23.877-15.801l0.122-8.485l4.328-2.792
		c-1.282-0.779-1.936-1.965-1.629-3.191L320.039,305.541z"/>
	<path id="path26979" inkscape:connector-curvature="0" fill="#FFFFFF" d="M307.5,309.985c2.9,0.329,5.647-0.988,6.135-2.94
		c0.489-1.952-1.468-3.801-4.368-4.129c-2.899-0.329-5.646,0.988-6.136,2.94c-0.224,0.899,0.069,1.777,0.806,2.515l-5.232,3.279
		l-13.361,0.274l-6.543,5.329l-50.756,0.658l-0.003,1.612l51.725-1.038l6.644-5.545l13.29-0.339l5.483-3.334
		C305.773,309.63,306.591,309.882,307.5,309.985L307.5,309.985z"/>
	<path id="path26981" inkscape:connector-curvature="0" fill="#FFFFFF" d="M348.894,321.832c-1.612,1.655-4.914,2.117-7.373,1.031
		c-2.46-1.085-3.146-3.308-1.532-4.963c1.613-1.655,4.915-2.117,7.374-1.031c1.055,0.466,1.784,1.143,2.107,1.88l3.948-0.008
		l9.786-8.084l-0.285-9.342l-9.797-6.675l-125.044,0.672l0.002-1.453l126.079-0.407l10.311,6.783l0.444,11.396l-10.791,8.589
		l-4.372-0.084C349.685,320.736,349.392,321.312,348.894,321.832L348.894,321.832z"/>
	<path id="path26983" inkscape:connector-curvature="0" fill="#FFFFFF" d="M308.315,321.618c2.9,0.329,5.647-0.987,6.135-2.939
		s-1.468-3.801-4.367-4.129c-2.901-0.329-5.648,0.987-6.136,2.939c-0.277,1.108,0.233,2.182,1.235,2.955l-4.139,3.494l-14.689-0.042
		l-3.08,1.664l-55.276,0.45l0.032,1.376l55.676-0.603l3.013-1.728l15.295-0.057l4.591-3.785
		C307.115,321.414,307.694,321.548,308.315,321.618L308.315,321.618z"/>
	<path id="path26985" inkscape:connector-curvature="0" fill="#FFFFFF" d="M290.255,321.297c2.9,0.328,5.647-0.988,6.136-2.94
		c0.488-1.952-1.469-3.801-4.369-4.129c-2.899-0.329-5.646,0.988-6.135,2.94c-0.17,0.68-0.044,1.349,0.311,1.979l-3.661,2.876
		l-54.501,0.876l-0.002,1.377l55.599-0.854l3.746-3.145C288.113,320.801,289.108,321.167,290.255,321.297L290.255,321.297z"/>
	<path id="path26987" inkscape:connector-curvature="0" fill="#FFFFFF" d="M323.167,333.431c1.976,1.467,5.343,1.578,7.521,0.247
		l-0.006-0.001c2.179-1.33,2.344-3.597,0.367-5.063c-1.976-1.466-5.344-1.576-7.522-0.247c-0.701,0.427-1.183,0.952-1.477,1.55
		l-1.396,0.324l-20.804,13.88l-71.849,0.572l-0.003,1.303l72.82-0.638c0,0,14.155-9.457,20.945-14.046
		C321.917,332.111,322.365,332.838,323.167,333.431L323.167,333.431z"/>
	<path id="path26989" inkscape:connector-curvature="0" fill="#FFFFFF" d="M340.397,341.977c0.488-1.953,3.235-3.269,6.135-2.94
		c2.901,0.329,4.856,2.177,4.368,4.13c-0.487,1.952-3.235,3.269-6.136,2.94c-1.266-0.144-2.352-0.578-3.095-1.195l-6.537,4.417
		l-15.941-0.016l-20.183,14.266l-23.005,0.476l-48.079,33.971l-0.001-2.43l46.87-32.997l23.25-0.472l20.345-14.247l15.781-0.001
		l6.392-4.198C340.328,343.15,340.249,342.568,340.397,341.977L340.397,341.977z"/>
	<path id="path26991" inkscape:connector-curvature="0" fill="#FFFFFF" d="M345.186,335.1c2.899,0.329,5.647-0.988,6.136-2.94
		c0.487-1.952-1.468-3.801-4.369-4.129c-2.899-0.328-5.646,0.988-6.134,2.94c-0.093,0.369-0.099,0.733-0.026,1.096l-4.695,3.503
		l-18.798,0.107l-15.279,11.216l-74.024,0.356l-0.003,1.584c24.875-0.185,75.111-0.557,75.111-0.557l15.153-11.15L336.892,337
		l4.685-3.611C342.301,334.29,343.603,334.921,345.186,335.1L345.186,335.1z"/>
	<path id="path26993" inkscape:connector-curvature="0" fill="#FFFFFF" d="M287.972,356.577c2.067,1.409,5.439,1.421,7.531,0.029
		l0,0c2.091-1.392,2.11-3.661,0.042-5.069c-2.068-1.408-5.439-1.42-7.531-0.028c-0.916,0.608-1.439,1.383-1.521,2.196l-58.507,0.542
		l-0.002,1.268l58.572-0.571C286.791,355.503,287.257,356.092,287.972,356.577L287.972,356.577z"/>
	<path id="path26995" inkscape:connector-curvature="0" fill="#FFFFFF" d="M305.873,368.693c2.376,1.167,5.708,0.816,7.442-0.783
		c1.733-1.598,1.212-3.841-1.164-5.007c-2.375-1.167-5.707-0.817-7.44,0.782c-0.466,0.438-0.779,0.921-0.927,1.428
		c-4.528,0.02-26.428,0.566-26.428,0.566l-49.44,35.426l0.108,1.85l50.533-35.831l25.286-0.486
		C304.151,367.468,304.834,368.183,305.873,368.693L305.873,368.693z"/>
	<path id="path26997" inkscape:connector-curvature="0" fill="#FFFFFF" d="M341.936,370.227c2.167,1.34,5.536,1.24,7.524-0.218
		l-0.003,0c1.989-1.458,1.843-3.726-0.324-5.064c-2.167-1.339-5.536-1.241-7.524,0.219c-1.211,0.889-1.63,2.08-1.253,3.139
		l-3.962,2.642l0.121,8.176l-6.151,4.001l-22.332,0.266l-10.826,6.188l-23.463,0.251l-30.686,20.097l0.149,14.954l2.381,0.003
		l-0.439-14.175l29.431-19.653l23.566-0.346l10.195-5.943l22.853-0.375l7-4.742l0.014-8.051l2.915-2.042
		c0.217,0.261,0.492,0.478,0.811,0.674H341.936z"/>
	<path id="path26999" inkscape:connector-curvature="0" fill="#FFFFFF" d="M403.79,388.734c-0.488,1.952-3.235,3.268-6.136,2.939
		c-2.899-0.328-4.855-2.178-4.367-4.129c0.487-1.953,3.234-3.269,6.135-2.94C402.322,384.933,404.278,386.781,403.79,388.734z"/>
	<path id="path27001" inkscape:connector-curvature="0" fill="#FFFFFF" d="M287.202,380.594c2.182,1.327,5.548,1.213,7.521-0.255
		l0.002,0.001c1.971-1.469,1.802-3.735-0.38-5.063c-2.182-1.328-5.549-1.215-7.521,0.254c-0.868,0.645-1.321,1.444-1.34,2.212
		c-4.404,0.162-13.327,0.239-13.327,0.239l-44.253,30.665l-0.004,2.05l45.217-31.265l12.665-0.343
		C286.016,379.651,286.507,380.171,287.202,380.594L287.202,380.594z"/>
	<path id="path27003" inkscape:connector-curvature="0" fill="#FFFFFF" d="M323.075,380.754c1.865,1.531,5.22,1.753,7.495,0.498
		h-0.008c2.274-1.256,2.604-3.515,0.739-5.044c-1.865-1.531-5.22-1.754-7.494-0.499c-0.814,0.449-1.377,1.026-1.67,1.663
		c-4.857,0.149-14.635,0.139-14.635,0.139l-13.039,8.759l-22.878,0.396l-32.316,21.841l-0.04,16.366l2.062,0.003l-0.177-15.679
		l31.653-20.805l22.756-0.848c0,0,8.724-5.619,12.951-8.582l13.38-0.307C321.915,379.378,322.311,380.127,323.075,380.754
		L323.075,380.754z"/>
	<path id="path27005" inkscape:connector-curvature="0" fill="#FFFFFF" d="M351.544,377.835c-0.374-1.963-3.045-3.349-5.961-3.097
		c-2.917,0.252-4.977,2.049-4.602,4.012c0.374,1.964,3.045,3.35,5.961,3.098c1.299-0.112,2.425-0.531,3.184-1.135l3.796,2.504
		l0.095,7.616l-30.359,19.939l-1.065,6.759l-7.773,5.096c-0.249,0.739-0.238,1.55-0.198,2.298l1.905,0.001l0.13-1.645l7.63-5.236
		l1.019-6.61l31.188-19.875l-0.41-8.992l-4.738-3.116c0.212-0.51,0.307-1.056,0.191-1.617H351.544z"/>
	<path id="path27007" inkscape:connector-curvature="0" fill="#FFFFFF" d="M308.041,392.969c2.612,0.91,5.824,0.222,7.176-1.536
		s0.33-3.92-2.283-4.83c-2.612-0.91-5.825-0.222-7.177,1.536c-0.439,0.564-0.612,1.175-0.608,1.755l-2.111,0.082l-3.817,2.035
		l-23.628,0.535l-28.285,18.967l0.365,13.366l2.086,0.001l-0.512-12.642l27.198-18.445l23.752-0.606l3.176-1.831l2.248-0.107
		c0.451,0.7,1.28,1.327,2.411,1.72L308.041,392.969z"/>
	<path id="path27009" inkscape:connector-curvature="0" fill="#FFFFFF" d="M288.737,404.833c2.207,1.309,5.572,1.164,7.516-0.322
		l0,0c1.942-1.485,1.728-3.752-0.48-5.059c-2.208-1.308-5.573-1.164-7.515,0.322c-0.629,0.481-1.025,1.046-1.307,1.71l-12.698-0.004
		l-18.463,13.2l0.636,10.278l2.197-0.071l-0.683-9.404l17.292-12.552l11.895,0.005C287.296,403.643,287.859,404.314,288.737,404.833
		L288.737,404.833z"/>
	<path id="path27011" inkscape:connector-curvature="0" fill="#FFFFFF" d="M307.027,405.094c2.48,1.063,5.774,0.568,7.352-1.099
		c1.579-1.669,0.844-3.886-1.632-4.947c-2.48-1.063-5.774-0.568-7.352,1.097c-0.613,0.649-0.879,1.378-0.793,2.093
		c-0.282-0.004-1.355,0.292-1.355,0.292l-7.232,4.995l-23.274,0.049l-12.753,8.675l0.696,8.643l2.189,0.001l-0.743-7.842
		l10.974-7.835l23.885-0.238l7.34-5.431l0.719-0.103c0.348,0.676,1.039,1.247,1.981,1.65H307.027z"/>
	<path id="path27013" inkscape:connector-curvature="0" fill="#FFFFFF" d="M322.764,401.404c0.488-1.952,3.235-3.269,6.135-2.939
		c2.901,0.328,4.856,2.177,4.368,4.129s-3.235,3.268-6.136,2.939c-0.672-0.075-1.294-0.232-1.807-0.449l-5.185,4.279l-0.019,7.426
		c0,0-5.251,3.233-7.758,5.113l-0.415,3.023l-1.797-0.001c0.077-1.183,0.105-2.507,0.376-3.677l7.634-5.051l0.15-7.488l5.657-4.389
		C322.977,403.543,322.494,402.489,322.764,401.404L322.764,401.404z"/>
	<path id="path27015" inkscape:connector-curvature="0" fill="#FFFFFF" d="M385.448,412.735c-1.503,1.701-4.771,2.26-7.299,1.249
		c-2.527-1.012-3.359-3.21-1.856-4.913c1.504-1.701,4.771-2.26,7.298-1.249c1.061,0.424,1.82,1.057,2.263,1.802l10.714-0.214
		l19.445,12.604l0.48,2.983l-1.902-0.001l-0.099-2.261l-18.29-11.912l-10.014,0.199c-0.018,0.582-0.271,1.172-0.741,1.711
		L385.448,412.735z"/>
	<path id="path27017" inkscape:connector-curvature="0" fill="#FFFFFF" d="M432.062,415.949c2.699-0.786,3.941-2.895,2.773-4.712
		l0,0c-1.169-1.817-4.304-2.653-7.003-1.868c-2.7,0.788-3.942,2.896-2.773,4.714c0.381,0.595,0.974,1.084,1.692,1.468l-3.839,2.77
		l0.515,6.681l1.525,0.002l-0.206-6.028l3.853-2.829C429.667,416.323,430.904,416.292,432.062,415.949L432.062,415.949z"/>
	<path id="path27019" inkscape:connector-curvature="0" fill="#FFFFFF" d="M282.193,420.127c-0.489,1.952-3.236,3.268-6.136,2.939
		s-4.856-2.177-4.368-4.129c0.488-1.952,3.235-3.268,6.135-2.939C280.726,416.326,282.681,418.175,282.193,420.127L282.193,420.127z
		"/>
	<path id="path27021" inkscape:connector-curvature="0" fill="#FFFFFF" d="M401.733,421.33c-0.487,1.953-3.234,3.269-6.135,2.94
		s-4.855-2.178-4.368-4.131c0.489-1.951,3.236-3.268,6.136-2.939C400.266,417.529,402.222,419.378,401.733,421.33z"/>
</g>
</svg>
